# xmcd CD database file
# Copyright (C) 1996 Ti Kan
#
# Track frame offsets:
#	150
#	10912
#	29160
#	51882
#	75072
#	103785
#	125602
#	143712
#
# Disc length: 2285 seconds
#
# Revision: 1
# Processed by: cddbd v1.4b41PL1 Copyright (c) Steve Scherf et al.
# Submitted via: EasyCD 2.21 - (C) 1996 Greg Leichner
#
DISCID=6208eb08
DTITLE=Dixieland Parade - South Rampart Street Parade
DYEAR=1900
DGENRE=
TTITLE0=South Rampart Street Parade
TTITLE1=The Sweet, Old Bye and Bye
TTITLE2=That's a Plenty
TTITLE3=Battle Hymn of the Republic - America the Beautiful
TTITLE4=Creole Love Song
TTITLE5=A Closer Walk With Thee
TTITLE6=The New Second Line
TTITLE7=When the Saints Go Marching In
EXTD=
EXTT0=
EXTT1=
EXTT2=
EXTT3=
EXTT4=
EXTT5=
EXTT6=
EXTT7=
PLAYORDER=
